<?xml version="1.0" encoding="utf-8"?>
<!-- Generator: Adobe Illustrator 24.3.0, SVG Export Plug-In . SVG Version: 6.00 Build 0)  -->
<svg version="1.1" id="branch-manager" xmlns="http://www.w3.org/2000/svg" xmlns:xlink="http://www.w3.org/1999/xlink" x="0px"
	 y="0px" width="300px" height="182.9px" viewBox="0 0 300 182.9" style="enable-background:new 0 0 300 182.9;"
	 xml:space="preserve">
<style type="text/css">
	.st0{fill:#ECB86A;}
</style>
<path class="st0" d="M144.9,0c0,0,24.5,1.7,42.8,10.6c0,0,5.7-1.4,22,15.7s17.7,18.8,38.8,28.2c5.7,2.6,12.8,10.8,12.3,18
	c-0.6,7.1-12.8,28.5-15.7,35.4c-2.9,6.8-18.5,14-24,10.8c-5.4-3.1-15.3-32.6-18-40.2c-2.2-6.5-6.2-23-3.5-33.7
	c-1.8-0.1-3.5,1.4-5.1,4.3c-5.1,9.3,3.5,34.6,6.6,39.7c4.6,7.5,6.8,20,3.7,27.7s-17.1,34.2-36.2,34.2s-17.7-8.8-22.3-9.7h0.9
	c-4.6,0.9-3.1,9.7-22.3,9.7s-33.1-26.5-36.2-34.2c-3.1-7.7,0.3-19.6,3.7-27.7c2.2-5.3,8.7-25.3,6.7-37.7c-0.8-2.3-2.6-3.8-5-4.7
	c0,0-1.3,23.3-3.7,32.1c-1.1,8-12.6,37.1-18,40.2c-5.4,3.1-21.1-4-24-10.8c-2.9-6.8-15.1-28.2-15.7-35.4c-0.6-7.1,6.6-15.4,12.3-18
	c21.1-9.4,22.5-11.1,38.8-28.2s22-15.7,22-15.7C124.1,1.7,148.7,0,148.7,0 M157.7,100.1c0,0-6.1-4.3-17.1,0.4s-9.6,10.7-8,14.1
	s5.7,10.7,16,10.3c10.3-0.4,16.4-2.9,17.4-9.1C166.9,109.6,168.4,104.6,157.7,100.1z M127.6,52.9c0,0-3.4,0-4.9,4.7
	s-1.6,9.7,1.6,9.7s5.1-0.7,6.6-5.7S133.4,53.8,127.6,52.9z M168.1,53.1c0,0-4.6-0.4-5.1,3c-0.6,3.4,0.3,7.7,1.3,9.3
	c1,1.6,3.9,2.3,6.1,1.4C172.6,65.9,172.5,53.8,168.1,53.1z M147.1,145.7c0,0-5.5,6.1-11.4,7c-5.8,0.9-18.1,0.9-22.1-1.9
	c0.9,1.9,22,12.6,34.8,11.3c12.8-1.3,28.5-9.7,30.8-12.1c-3.7,1-7.8,3.6-14.7,4S149.2,147.5,147.1,145.7z"/>
<path class="st0" d="M91.9,128.1c0.9-0.3,5.1,9.5,7.6,11.8c0.6,2.7,2.1,1.7-3.2,1.7c-5.3,0-9.7-1-12.6-0.4
	c-2.9,0.6-13.3,4.4-16.2,6.3c-1,1.7-0.6,1.7,2.5,2.3c3,0.6,7.6,1.5,11,3c3,0.8,8.9-2.7,14.1,0.4c2.7,3.2-2.5,2.7-4.9,3.8
	c-2.5,1.1-6.3,2.5-9.5,2.3c-3.2-0.2-17.3-7.2-25.5-6.3c-9.1,1-7.3,3.8-11.6,4.2c-5.3,0.4-10.4,1.6-14.5,4.6
	c-10.5,7.7-10.7,7.2-13.9,4c-5.8-5.8-16.9-6.3-15-12c1.9-5.7,33.9-14.6,40.1-15.8S63.9,136.5,91.9,128.1z"/>
<path class="st0" d="M206,124.3c0,0-5.5,9.9-8,13.5c4.2,2.3,26.5,24,26.5,24s3.4-1.1,0.1-4.2c-4.8-4.4-6.8-7.8-8-11.2
	c1-1.9,2.1-1.5,8.2,3.6s13.1,6.8,26.6,6.3c0,0,3.2-3.2-4.4-4.2s-13.5-2.3-23.6-11.8c3.2-0.6,15.2,3.2,21.3,5.3
	c6.1,2.1,13.3,5.7,19.6,16.5c3,6.5,24.2,22.4,31.2,20.5c0,0-0.2-2.7-11.2-10.8c-8-6.1-10.8-13.3-13.7-16.2c4.4,3.4,6.8,4.2,11.8,5.1
	c4.4-0.4,17.9,0.1,17.5-3s-6.9-1.1-14.1-1c-6.3-1.5-11.2-6.7-17.3-10.3c-6.1-3.6-9.5-7.6-26.6-11.2c11.2-0.6,31.4-12.2,38.4-18.6
	c1-4-1.5-2.9-4.4-1.7s-17.5,8.7-24.5,9.5c-7,0.8-21.7,3.8-24.3,3.6C224.5,127.9,209.1,126.6,206,124.3z"/>
</svg>
