<?xml version="1.0" encoding="utf-8"?>
<!-- Generator: Adobe Illustrator 24.3.0, SVG Export Plug-In . SVG Version: 6.00 Build 0)  -->
<svg version="1.1" id="dog-swim" xmlns="http://www.w3.org/2000/svg" xmlns:xlink="http://www.w3.org/1999/xlink" x="0px" y="0px"
	 width="300px" height="267.5px" viewBox="0 0 300 267.5" style="enable-background:new 0 0 300 267.5;" xml:space="preserve">
<style type="text/css">
	.st0{fill:#ECB86A;}
	.st0 { cursor: pointer; }
	.st0:hover { fill: #ff8585 !important;}
</style>
<path class="st0" d="M45,108.1c0,0-1-3.1,4.5-3.1s7.5,0.4,8.8,1.4c1.8-0.6,8.7-5.7,13-5.7s18.9,2.6,20.3,3.5c1.4,1,4.7,2.4,6.1,5.3
	s7.3,6.3,13.4,6.9s9.6,0.4,24.8,5.7s20.4,7.3,27.5,7.5c3.5,0.2,5.5-2.9,39.3,9.8c-3.3,0.6-40.9,3.9-63.5,4.7s-47-6.5-56.2-10.6
	s-23.4-6.9-26.9-8.1C52.5,124.2,47.6,122.6,45,108.1z M52.7,106.9c0,0-3.7-1.4-5.3-0.8s-1.2,5.1,1,5.3
	C50.5,111.6,54.1,109.4,52.7,106.9z M95.6,110.2c0,0-4.3-5.5-6.5-1.6s-1.2,10.8,2.4,12c3.5,1.2,6.3,3.3,9,3.7c2.8,0.4,10-1,9-3.1
	S101.1,121,95.6,110.2z M65.3,132.6c0,0-28.3-11-61.5-3.5c0,0-6.5,0.2-2.4,2.6c4.1,2.4,5.9,12.6,44.6,4.1
	C48.6,135.4,54.3,132.2,65.3,132.6z M67.4,133.4c0,0,7.5,15.1,10.4,17.3c-2-0.4-5.7-1.4-6.3-2.6c-1.4,1.2-25.4,15.5-29.7,19.7
	s0.2,9.8,5.9,8.8s8.7-3.5,12.4-7.7c1.8-1.8,6.3-5.9,8.3-6.3c1.8,1.2,13.6,9,19.1,9c-1.4,4.5-4.9,13.4-5.9,14.9
	c-1,1.6-3.5,7.5,1.2,13.4s9.8,5.5,14.9-0.2s-1.2-10.2-2.9-10.4c-1.8-0.2,8.8-14.5,10.6-15.3c1.8-0.8,26.9,0,36.6-2.2
	c-0.6,2.8-1.6,9.4-0.8,14.2c0.4,2.8-0.6,6.7-1,10s6.3,12.4,8.7,14s9.2,2,5.9-5.1s-5.1-8.5-4.1-9.6c1.2-0.2,2.6-1,2.2-4.3
	c-0.4-3.3,1.2-11.2,5.7-13c1.8,4.7,4.5,14.4,5.9,19.5s1.6,4.9,14.2,9.8c2.6,3.9,8.3,15.1,10.2,21.4s11.2,5.1,12-1.8
	c0.8-6.9-6.9-12.6-8.8-16.7c0.2-2.6-0.8-7.1-0.4-9.6c0.4-2.6-3.9-4.5-7.9-5.7c-3.9-1.2-3.5-3.1,0.2-9.4c3.7-6.3,11.8-19.1,12-24.8
	c0,0,12.6,0.4,22.4,6.9c2.8,1.4,4.9,2.2,8.1,0.2c1.6,1.2,8.5,2.4,11.2,3.9c2.8,1.6,4.9-3.1,4.5-5.7c1.2,0,7.7,3.3,9,6.3
	c2.6,0.2,5.9-3.1,1.8-9.2c3.1,2.2,7.9,5.3,8.8,7.9c3.3,1.2,7.7-2.9,8.3-6.3c0.6-3.3,1.4-10.6-21.2-15.3s-50.7-6.9-57.2-6.1
	s-34.4,9.8-41.1,10.8c-6.7,1-35.4,3.3-59.6-9.4S67.4,133.4,67.4,133.4z M210,141.1c0,0,77.7-3.5,85.3-2.4s4.3,2.6,1.2,3.7
	c-3.1,1.2-13.2,9.6-45.2,3.9C219.2,140.7,216.5,141.7,210,141.1z M103.6,145.6c0,0,21.2,9,46,4.7c3.5-0.6,17.9-4.5,20.8-4.9
	C166.5,145,125.2,150.1,103.6,145.6z M11.5,120.8C18,53,75.2,0,144.6,0c72.6,0,131.6,57.8,133.7,129.9c0,1.3,0.1,2.6,0.1,3.9
	c-5.6-0.3-11-0.3-16,0c0-0.8,0-1.7,0-2.5C261,67.3,208.8,16,144.6,16C84,16,34.1,61.8,27.6,120.7C23.6,119.5,17.9,119.8,11.5,120.8z
	 M253.9,177.9c-17.5,43.2-59.8,73.7-109.2,73.7c-60.8,0-110.8-46-117.1-105.1c-5.1,0.5-10.5-0.3-16.2-2.1
	c5.4,68.9,63,123.2,133.3,123.2c59.7,0,110.3-39.2,127.5-93.2C267,177.6,260.6,178,253.9,177.9z"/>
</svg>
