<?xml version="1.0" encoding="utf-8"?>
<!-- Generator: Adobe Illustrator 24.3.0, SVG Export Plug-In . SVG Version: 6.00 Build 0)  -->
<svg version="1.1" id="dog-paw" xmlns="http://www.w3.org/2000/svg" xmlns:xlink="http://www.w3.org/1999/xlink" x="0px" y="0px"
	 width="279.1px" height="300px" viewBox="0 0 279.1 300" style="enable-background:new 0 0 279.1 300;" xml:space="preserve">
<style type="text/css">
	.st0{fill:#ECB86A;}
</style>
<path class="st0" d="M66.7,37.1c3.5-0.4,5.4,6.3,7.8,8.7c4.3,0.6,6.7,1.7,10.2,1.3s4.1-0.6,5.8-2.8c2.2-13.4,10-18.2,13.9-22.1
	c-1.5-12.8,0.6-16.7,3.7-18.6s7.4,8,12.3,13.4c11.5-1.3,18.8,10,21.7,12.1c4.3-8.4,14.9-10.6,18-11c1.1-3.5,2.2-8,4.1-13.9
	c1.9-5.8,4.5-4.1,6.9-3.5s3.2,13.2,4.3,18.2c6.5,1.9,14.3,28.4,14.3,31.4c3,0.4,8.2,2.2,10.2,1.7s9.1-10.4,11.7-12.3
	c2.6-1.9,6.7-3.2,7.8-0.4s-3.7,18.8-4.3,22.3c8.7,16.7,0.4,36.4-2.2,43.1c-2.6,6.7-7.1,23.8-8.4,32.7s-0.9,40.1-1.5,45.3
	s-1.7,4.3-2.6,7.1c-0.4,8,0,10,0.2,20.1c0.2,10.2,12.6,79.5,13.4,84.7c0.9,5.2-5.2,4.3-9.7,4.1S94.5,300.4,92,299.8
	c-1.3-2.3-1.6-7.1-4.2-19.8c-2.6-12.7-3.7-77-4.1-80s-1.3-2.6-2.7-5.1c-0.3-3.9-2.3-13.6-4.9-22.7s-11-40.9-11-40.9
	c-1-3.6-0.3-5.5-0.6-11c-2.6-10.1-5.8-13.3-9.7-35.1S61,56.6,61,56.6C58.3,33.7,63.2,37.6,66.7,37.1z M74.5,59.4
	c0,0-10.2,9.7-8.2,20.1s5,20.6,9.1,24.7s6.5,3.7,14.1-2.8S101.8,88,102,81.3C102.2,74.6,83.6,55.8,74.5,59.4z M115,31.5
	c0,0-9.3,3.5-8.9,14.3s0,24.5,5,28.6s8.7,5,18.8,0.6c4.1-1.9,8-2.4,6.5-17.8S127.8,26.7,115,31.5z M162.9,27.6
	c0,0-8.4-1.3-14.1,16.9c-5.6,18.2-1.9,26,2.6,28.4s9.5,3,17.1-0.2s10.6-5.6,10.8-20.1S168.9,26.7,162.9,27.6z M201,68.1
	c0,0-6.9-7.4-17.8,7.1s-8.2,16.9-6.5,21s9.5,8.2,14.5,10.2c4.5,0.4,12.8-5.6,14.3-18.6S206.2,71.6,201,68.1z M127.1,89.6
	c0,0-8,5-17.3,14.7s-9.3,6.3-13.9,11.5s-9.7,21.4,0.4,29s14.9,3,23.8-0.2s25.1-5.6,38.8-1.3c13.6,4.3,25.1-0.9,25.6-7.6
	c0.4-6.7-0.2-13.2-6.3-20.4s-9.1-10.8-13.9-17.5C159.6,91.1,144.5,81.3,127.1,89.6z"/>
<path class="st0" d="M229.6,62c0,0,1.1,6.7,0.4,10.6c3.2-0.6,35.5-13.4,40.7-14.9C276,56.2,247,57.7,229.6,62z"/>
<path class="st0" d="M223.5,103.6c0,0-2.6,8.2-3.2,10.6c0,0,48.5-24.5,57.4-26.9C286.6,85,253.4,89.1,223.5,103.6z"/>
<path class="st0" d="M214.2,158.4l0.2,19.1c0,0,45.3-40.9,53.3-51.1C259.9,130.5,226.3,148.3,214.2,158.4z"/>
<path class="st0" d="M62.8,166.4c0,0,4.1,12.3,5.2,16c-3.5,5-64.5,85.3-68,93.4C1.7,266.7,29.9,197.6,62.8,166.4z"/>
<path class="st0" d="M74.5,210c0,0,1.1,17.3,1.3,22.3C73,236,26.4,280.6,21,286C29.2,269.8,64.3,216.3,74.5,210z"/>
<path class="st0" d="M76.9,265l1.1,13.4c0,0-22.5,12.1-31.8,13.4C53.3,285.8,61.3,280.6,76.9,265z"/>
</svg>
