<?xml version="1.0" encoding="utf-8"?>
<!-- Generator: Adobe Illustrator 24.3.0, SVG Export Plug-In . SVG Version: 6.00 Build 0)  -->
<svg version="1.1" id="dog-mask" xmlns="http://www.w3.org/2000/svg" xmlns:xlink="http://www.w3.org/1999/xlink" x="0px" y="0px"
	 width="266.9px" height="300px" viewBox="0 0 266.9 300" style="enable-background:new 0 0 266.9 300;" xml:space="preserve">
<style type="text/css">
	.st0{fill:#ECB86A;}
	.st0 { cursor: pointer; }
	.st0:hover { fill: #ff8585 !important;}
</style>
<path class="st0" d="M133.6,300c-13.9,0.7-88.8-44.9-90.1-50.2c-1.3-5.3-1.3-20.8,1.3-32.7s4-36,3.6-41.3c-1-10.2-0.3-13.5,0.3-17.8
	c4.6,1.3,16.8,8.9,20.1,9.9c-0.3-3.3-0.7-7.9-4.6-8.6c-4-0.7-12.9-5.9-15.2-9.6s-0.3-24.8,0-32.4s-4.3-9.9-4.3-1.7s-0.3,27.7,0,31.4
	c-3.3,0.7-18.5,2.3-23.1-5.9s-10.2-11.2-18.2-17.8c-7.9-6.6-1.3-16.5,9.6-24.8S27.3,87,30.9,78.8S44.8,54,47.4,52.3
	c3,24.1,17.5,43.6,19.8,47.9c3,0,4.3-0.3,7.9-0.3C54.3,82.1,52.4,52,53.3,44.6c6.4-8.9,24.8-21.8,45.6-33.2S133.6,0,133.6,0h-0.3
	c0,0,13.9,0,34.7,11.4s39.1,24.3,45.6,33.2c1,7.4-1,37.5-21.8,55.3c3.6,0,5,0.3,7.9,0.3c2.3-4.3,16.8-23.8,19.8-47.9
	c2.6,1.7,12.9,18.2,16.5,26.4c3.6,8.3,6.9,11.6,17.8,19.8s17.5,18.2,9.6,24.8s-13.5,9.6-18.2,17.8s-19.8,6.6-23.1,5.9
	c0.3-3.6,0-23.1,0-31.4s-4.6-5.9-4.3,1.7s2.3,28.7,0,32.4c-2.3,3.6-11.2,8.9-15.2,9.6c-4,0.7-4.3,5.3-4.6,8.6
	c3.3-1,15.5-8.6,20.1-9.9c0.7,4.3,1.3,7.6,0.3,17.8c-0.3,5.3,1,29.4,3.6,41.3s2.6,27.4,1.3,32.7S147,300.7,133.2,300 M132.6,98.6
	c-24.1,0-59.8,6.9-60.8,6.6c0,0,1,23.1,0.7,25.8s48.2-5.3,61.1-6.3h-0.5c12.9,1,61.4,8.9,61.1,6.3s0.7-25.8,0.7-25.8
	c-1,0.3-36.7-6.6-60.8-6.6 M133.4,196.6c16.8,0,56.8-6.3,60.8-9.9c-4.3-7.6-0.3-44.2-0.7-50.9c-20.5-4-60.1-6.9-60.1-6.9h0.2
	c0,0-39.6,3-60.1,6.9c-0.3,6.6,3.6,43.3-0.7,50.9c4,3.6,43.9,9.9,60.8,9.9 M113.4,47.1c0,0-6.3-0.7-8.6,5.9c-2.3,6.6-2,9.6,0,10.9
	s8.3-3.3,9.9-6.6S116.7,50,113.4,47.1z M151.3,57.3c1.7,3.3,7.9,7.9,9.9,6.6s2.3-4.3,0-10.9s-8.6-5.9-8.6-5.9
	C149.3,50,149.7,54,151.3,57.3z M133.4,186.7c10.9-0.2,45.6-4.9,49.9-5.6c4.3-0.7,1.7-4.9-1.3-4.2c-12.2,3.7-48.5,6.1-48.5,6.1h0.2
	c0,0-36.3-2.5-48.5-6.1c-3-0.7-5.6,3.4-1.3,4.2c4.3,0.7,39,5.4,49.9,5.6"/>
	<defs>
 		<script>
    		let theIcon = document.querySelector("#dog-mask");

    		function logMyId() {
    			console.log('clicked on an image!');
    			console.log(this.id);
    		}

    		theIcon.addEventListener("click", logMyId);
    	</script>
	</defs>
</svg>
