<?xml version="1.0" encoding="utf-8"?>
<!-- Generator: Adobe Illustrator 24.3.0, SVG Export Plug-In . SVG Version: 6.00 Build 0)  -->
<svg version="1.1" id="dog-hospital" xmlns="http://www.w3.org/2000/svg" xmlns:xlink="http://www.w3.org/1999/xlink" x="0px"
	 y="0px" width="300px" height="246.1px" viewBox="0 0 300 246.1" style="enable-background:new 0 0 300 246.1;"
	 xml:space="preserve">
<style type="text/css">
	.st0{fill:#ECB86A;}
	.st0 { cursor: pointer; }
	.st0:hover { fill: #ff8585 !important;}
</style>
<path class="st0" d="M65.4,222.3c27.9,0.3,60.7,1,71-0.2c4.7,1.5,5.1-5.2-2-7.4c-2.8-0.9,46.6-1.7,58.9-2.2
	c30.8-1.1,41.4-1.3,65.2-1c23.9,0.4,35.9,0.7,35.9,0.7c8.8-0.1,5.3-8.3,1.5-9.4s-22.6-5.6-27.7-6.7c-5.1-1.2-30.3-1.3-32.1-1.3
	s-2.5-0.5-1.6-1.7c2.9-0.7,33,0.8,35,1.3c7.3,2.7,15.6,5.1,17.9,5.5s3.8-1,2.9-3.1c-1-2.1-7.6-7.2-13.3-8.7
	c-5.7-1.4-40.1-3.1-40.1-3.1c-0.9-4.7-8.4-11.4-9.6-14.1c0.5-13.3-3.2-21.7-3.1-22.8c0.1-1.1,4.3-1.6,4.3-1.6
	c6.2-0.3,13.2-3.3,16.2-4.3c11-3.2,10.7-5.8,14-11.9c3.3-6.2,1.9-12.7,2.9-12.7c0.5,0,1.9-1.4,1.9-2.9c-1.7-3.8-4.8-5.7-9.1-6
	c-2.1,0-3,0.9-3.6,2c-5.3,0.3-14.8-0.6-17.7-6.4c-0.6-14.1-40.4-15.9-40.4-15.9c-3.4-7.3-16.6-15.4-20.3-16.9c0.6,4,4,20.6,4,25.4
	s-1.3,0.8-2.7,11.5c-1.3,10.8-0.2,21.7-5.2,25c-5,3.3-15.4,12.3-19.8,11.4s-22.1,2.9-26.4,2.5c-4.2-0.4-12.1-3.7-21-5.4
	s-21.9-1-30,0.8c-8.1,1.7-14.8,4-23.9,21.4c-2.6,5-4.3,11-4.6,17.1c0,0-12.5-0.4-20,6.4c-7.5,6.7-21.2,17.1-22.1,27.3
	c-1,10.2-0.8,9.4-0.4,13.3c1-3.7,1.5-5.8,2.1-5.8s-0.8,15.6,4,17.9c0.6-1-0.6-4.8-0.6-5.6c1.3,1.9-0.2,9,10.4,9.2
	c-1.3-1.3-4.2-4.2-2.9-4.8c2.3,0.8,4.2,0.2,4.2,0.2c2,2.1,3.8,4.4,7,4c-0.2-1.7,0.2,1.7,7.1,2.3s5.2,0.4,8.7-1.2
	c-3.3-0.4-4.6-0.4-5-1.5c-0.4-1.2,5.6,1.2,8.3,0.4s1-1.5-0.8-2.9c0,0,7.2,1.8,10.2,1c-1.2-0.4-1.9-1.4-0.6-0.8s9,4,13.9,3.5
	c5-0.4,9.1-1,10.5-1.9c-2,0-3,0.2-3.8,0c0.9-0.6,2.6-0.4,5.4-1.9s6.9-0.6,12.3-3.8c5.3-3.2,11.6-5.9,13.6-6.7
	c-0.2-1.6-1.4-4-4.4-4.5c-3-0.4-3.9-1.6-7.9-0.3c-3,0.1-4.3-0.6-7.7,1.7c-3.4,2.4-6.4,2.4-10.3,1.9s-8.1-1.9-15.3-2.2
	c-4.6-1-6.1-3.7-6.1-3.7s-5.3-7.3-7.7-8.9c-2.7-1.8-7.2-10.5-5.8-14.3c0,0,0.6-2.9,4.2-3.5C43.4,203.3,57.5,219.2,65.4,222.3z
	 M116.6,66.8H50.7v55.4H117c0,7,0,19.9,0,19.9c1.3,1.2,3.9,2.4,6.7,2.2c3.1-0.2,22.1-5.6,26.3-4c3.2-1,9-6.4,11.6-7.7
	s6-6.4,5.8-10.4s1.7-19.4,3.3-21.4s0.8-22.1-2.1-28.9c-2.9-6.7-1.9-4.8-1.9-4.8c4,0.3,7.1,1.1,10.1,1.9c3.8,2.4,16.6,10.1,18.6,13.7
	c3.1,0.8,21.2,3.3,25.4,5.6s15.4,7.5,16.4,12.3c3.1,4,6.5,5.6,11,5.2c0.2-2.1,0-39.5,0-39.5h-66V0h-65.4v66.8H116.6z"/>
	<defs>
 		<script>
    		let theIcon = document.querySelector("#dog-hospital");

    		function logMyId() {
    			console.log('clicked on an image!');
    			console.log(this.id);
    		}

    		theIcon.addEventListener("click", logMyId);
    	</script>
	</defs>
</svg>
