<?xml version="1.0" encoding="utf-8"?>
<!-- Generator: Adobe Illustrator 24.3.0, SVG Export Plug-In . SVG Version: 6.00 Build 0)  -->
<svg version="1.1" id="dog-glasses" xmlns="http://www.w3.org/2000/svg" xmlns:xlink="http://www.w3.org/1999/xlink" x="0px"
	 y="0px" width="255px" height="300px" viewBox="0 0 255 300" style="enable-background:new 0 0 255 300;" xml:space="preserve">
<style type="text/css">
	.st0{fill:#ECB86A;}
</style>
<path class="st0" d="M109.6,74.5c3.9-17.7,18.6-39.8,30.3-61.4c11.7-21.6,17.9-11.7,22.1-4.3c4.1,7.4,24.9,75,24.9,75
	c7.6,5.4,14.3,28.8,14.5,34.2c-3.4-0.3-21.9,3.3-32.2,7.6c-12.2,5.1-8.7,8.7-8.4,13.6c0.9,12.5-2.4,9.3-8.2,11.2
	c-5.8,1.9-3.2,0.2-4.3-8.7c-1.1-8.9-9.7-8.7-9.7-8.7c-30.5-3-53.4,5.4-69.6,12.8s-14.7,20.8-7.4,40.2s17.9,17.5,25.3,16.2
	c7.4-1.3,27.5-6.1,46.5-11.9s16.4-20.5,16.2-27.2c-0.2-6.7,4.5-5.8,7.6-6.5c9.9-2.4,8.7,3.2,11.7,14.9c3,11.7,34-3,35.9-4.1
	c1.9-1.1,3.2-1.5,4.5,1.9s45.8,39.1,19.5,76.1s-72,35.2-76.1,34.6c-1.5-0.2-0.9,6.5-2.2,10.8c-1.3,4.3-13,6.9-42.2,8.9
	c-29.2,1.9-71.8-19.9-86.7-30.3s-14.7-19.9-16-28.5c-1.3-8.7,1.1-17.9,2.5-24.7c-4.9-7.8-8.3-16.5-7.8-35s6.3-32.1,4.4-40.9
	c-1.9-8.8,0.5-65.2,3.9-81.7s4.4-26.3,19-26.3S75,84,75,84C90.1,77.2,104,75.2,109.6,74.5z M150.4,19.8c-1.7,1.3,0.9,18.6-7.8,31.6
	c-8.7,13-7.8,20.5-6.3,24.9c7.8-2.2,26.2-1.3,28.5-1.1c2.4,0.2,3.9,0.6,9.3-0.4c0-31.4-16.7-50.6-16.7-50.6S152.2,18.5,150.4,19.8z
	 M67,87.1c0.6-0.3-18.4-30.1-26.8-34.4s-14.1-5.4-12.1,2.8s9.9,32,7.1,53.8C34.3,113.3,55.1,92.3,67,87.1z M215.1,189.2
	c0,0-8.2-15.6-26.6-6.3s-20.1,20.1-13.2,26.4c6.9,6.3,28.1,5,37-1.7S216.8,192,215.1,189.2z M101.1,233.9c0,0-2.2,19.9,10.6,28.3
	c12.8,8.4,19.9,6.7,20.5,4.1c-0.2-3.2-8.9-2.2-13.2-6.3c-4.3-4.1-11.2-11-11.9-20.5S101.1,233.9,101.1,233.9z M32.2,265.9
	c33.5,24.9,80.8,26.6,96.7,23.8s14.1-10.4,12.8-11c-1.3-0.6-14.5-3.9-14.5-3.9c-58,3.9-113.1-45-113.1-45
	C10.5,257.5,27.6,261.4,32.2,265.9z"/>
<path class="st0" d="M202.7,118.3c0,0,12.8,11.5,7.1,46.1c3.5-1.3,9.4-2,10.8-14.1c1.4-12.3,1.9-33.3-5.4-33.5
	C212.7,116.3,208,117,202.7,118.3z"/>
<path class="st0" d="M227.1,89.4c0,0-1.1,14.7-20.4,17.2c2.5,0.8,19.1-2.8,19.2,13.1c1.1,14.6,1.7,24.5,1.7,24.5s1.5-25,2.6-27.6
	c1.1-2.6,2.3-9.7,21.2-10.3c1.4,0,3.6,0,3.6,0s-16.1-1.8-17.9-3.4c-1.8-1.5-8.3-4-8.3-23.2C228.8,77.7,228,75.7,227.1,89.4z"/>
<circle class="st0" cx="29.2" cy="254.6" r="4.4"/>
<circle class="st0" cx="41.2" cy="262" r="4.4"/>
<circle class="st0" cx="55.9" cy="268" r="4.4"/>
<circle class="st0" cx="72.1" cy="272.9" r="4.4"/>
</svg>
