<?xml version="1.0" encoding="utf-8"?>
<!-- Generator: Adobe Illustrator 24.3.0, SVG Export Plug-In . SVG Version: 6.00 Build 0)  -->
<svg version="1.1" id="dog-lay" xmlns="http://www.w3.org/2000/svg" xmlns:xlink="http://www.w3.org/1999/xlink" x="0px" y="0px"
	 width="300px" height="287.5px" viewBox="0 0 300 287.5" style="enable-background:new 0 0 300 287.5;" xml:space="preserve">
<style type="text/css">
	.st0{fill:#ECB86A;}
</style>
<path class="st0" d="M38.1,101.1c14.5-10,19.8-1.7,21.9,0.2c2.1,1.9,3.6-1.1,7.7,3.2s-7.4,32.4-8.7,34.7s0.6,5.5-1.5,10.4
	c1.7,0.6,5.5-1.1,8.9,2.1c3.4,3.2-8.1,15.3-5.5,14.5s7,0.6,7.7-1.3s1.5-10.6,1.9-19.6c0.4-8.9,12.3-7.9,16.2-7.4
	c3.8,0.4,30,10,36.4,13s10.2,1.5,7.7,10.9c-8.7,8.9-20.4,6-23.8,2.1c-3.4-3.8-16.8-12.3-20.2-12.6s-1.7,8.1-2.1,12.8
	c20-1.3,44.7,31.7,52.4,40.4c7.7,8.7,24.5,3.2,28.9,1.7c4.3-8.7,24.9-18.9,28.5-20.6c-2.6-1.5-8.3-3.8-11.9-5.1
	c-4.9-0.9-13.8-1.5-13.8-12.1s11.1-10,19.6-10s57.7,23.8,61.5,25.1s1.3,11.3-1.7,11.9c-3,0.6-12.3,3.4-8.9,4
	c3.4,0.6,12.6,9.2,15.1,10.6c12.1-6.2,24.5-30.7,26.6-43.4c2.1-12.8-3.8-21.3-7.2-32.1s0.4-23.2,8.3-16.2s19.2,34.3,18.1,57.7
	s-25.5,51.7-33.4,53.9c-7.9,2.1-9.8,10.9-11.5,15.5c-8.7,21.1-15.5,23.8-18.9,24.7c-3.4,0.9-24.1,7.7-44.5,14.9s-51.9-3.2-57-5.7
	c-5.1-2.6-45.1-16-65.1-20.6c-20-4.7-24.3-12.3-28.1-17s-13-18.1-15.3-24.9c-2.3-6.8-11.1-17.2-15.5-22.3C6,189.2,5.8,172.8,6,166
	c-4.5-3.4-5.7-16-4.9-20c-0.6-2.8-1.7,2.3-0.6-16s12.3-8.3,12.3-8.3C20.7,113.2,23.7,111.1,38.1,101.1z M59.2,104.1
	c0,0-7.2-5.1-10.9-1c-3.7,4.1-1.3,7.6,1.8,10.1s9.2,1.8,10.8-2.5S59.2,104.1,59.2,104.1z M44.6,133c0,0-3.2,1-3.8,3.5
	s-1.5,4.2,0.8,4.4s4.5-2.7,4.9-4.6S47.6,133.6,44.6,133z M29.8,124.7c0,0-3-1.3-5.1,1.5s-4.5,5.5-1.7,6.2c2.8,0.6,3.8-1.7,5.5-3
	C30.3,128.1,30.9,126.6,29.8,124.7z"/>
<path class="st0" d="M290.1,117.5C279.8,51,222.3,0,152.9,0C86.9,0,31.7,46,17.5,107.6c5.3-4.4,10.1-7.8,13.2-8.3
	c16.7-51.7,65.2-89.1,122.5-89.1c60.7,0,111.6,42.1,125.1,98.7C283.4,109.3,286.9,113.1,290.1,117.5z"/>
</svg>
