<?xml version="1.0" encoding="utf-8"?>
<!-- Generator: Adobe Illustrator 24.3.0, SVG Export Plug-In . SVG Version: 6.00 Build 0)  -->
<svg version="1.1" id="dog-howl" xmlns="http://www.w3.org/2000/svg" xmlns:xlink="http://www.w3.org/1999/xlink" x="0px" y="0px"
	 width="277.1px" height="300px" viewBox="0 0 277.1 300" style="enable-background:new 0 0 277.1 300;" xml:space="preserve">
<style type="text/css">
	.st0{fill:#ECB86A;}
	.st0 { cursor: pointer; }
	.st0:hover { fill: #ff8585 !important;}
</style>
<path class="st0" d="M105.5,188.1c4.4,3.7,23,15.3,21,14.7s-8.6,1.2-8.6,1.2c-22.8,2.2-31,30.8-34.4,44.4
	c-3.5,13.7,13.7,51.2,13.7,51.2H85.7c0,0-14.5-42-13.9-49.5s7.3-40.8,23.6-60.7c-11.1-11.7-5.3-25.6-5.3-25.6
	c-2.7,0.3-5.4,0.4-8.1,0.4c-45.3,0-82-36.8-82-82.1S36.7,0,82.1,0c41.9,0,76.4,31.4,81.5,71.9l-0.6,0.3c0,0,7.1-3.7,18.1,3.7
	c11,7.3,19.6,13,26.5,16.5s11.8,11,18.8,18.1c6.9,7.1,17.9,15.3,23.8,16.1c5.9,0.8,12.6,5.5,8.2,9.6c-4.5,4.1-12.6,12.8-35.9,6.7
	c2,14.5-2.2,13.5-2,18.1c0.2,4.7,0.4,8.6,1.4,11s4.3,6.9,3.9,11.2c0,0,1.4,6.5,6.1,9.4s26.3,45.9,31.8,54.4s11.6,20.2,13.5,53
	c-17.5,0-101.1,0-101.1,0s-12.4-41.4-10.6-47.3c0,0,3.5,0.4,0.4-8.6s-1.4-7.7-1.4-10.6s-3.5-11.2-7.1-14.1c0.8-2.2,3.7-3.9,6.5-3.7
	c2.9,0.2,3.9,0.4,9.8-1.2c5.9-1.6,24.9-0.4,29.8-1.8c4.9-1.4,6.3-2,10.6-1.8c-5.3-2.4-18.5-2.6-24.3-4.3c-5.7-1.6-31.2-0.6-37.3-0.4
	s-6.7,0-8.7-0.4c1.9-2,6-2.4,7.8-4.5c1.8-2,6.3-2.2,7.7-5.3s7.3-9.4,13-11.8c-0.2-3.5-3.5-10.4-1.6-14.5c2.4,1.4,5.5,5.1,8.2,4.5
	c1.8-0.8,3.1-4.9,3.1-7.5c2,0,5.9,1.4,7.5-1.6c-0.8-1.6-2.6-7.9-0.2-7.9c2.4,0,4.7,2,5.5-0.2s-1.4-4.9,0.2-5.9
	c0.8-0.1,1.7,0.8,2.2,0.2s1.8-16.5,3-19.3c1.1-2.8,2.1-6.5-5.7-6.2c0,0-7.6-4.9,2.4-5.2c1.5-0.2,9.6,7.6,12.8,8.5
	c3.1,0.8,18.3,11.7,33.8,7.2c-11.7-1.6-15.6-3.8-31.9-17.8c-1.1-0.9-7,0.8-11.7-12.7c-11-11.5-22-23.3-35.8-26.3l0.1,0.8
	c0,0.7,0,1.3,0,2c0,40-28.5,73.2-66.4,80.6C97.8,162.7,89.9,174.9,105.5,188.1z M158.5,72.4c0,0-5.7,0.2-11.6,6.1
	c-5.9,5.9-30.2-2.9-37.3-10.4c-7.1-7.5-19.2-10-25.5,0.6c-3.5,9.8,2.9,14.9,5.3,17.1c2.2,4.9,6.3,14.9,10.6,20c0,0-9.8-0.4-14.5,0.8
	c-4.7,1.2-6.5,1.4-6.1,8.2c0.4,6.7,8.2,17.5,14.7,20c2.2,1.2,6.1,0.4,2.4,7.1s-5.9,13.1-6.1,17.5c0,0,4.7,0.6,7.9-0.6
	c0.8-2.4,2.6-14.5,7.5-20.4c1.8-1.4,4.1-3.5,4.5-5.1s-1-4.1-3.5-3.3c-2.4,0.8-12.8,4.7-21.6-14.3c0,0,14.3,1,20,0
	c2.9,0.4,5.3,2.9,6.1,1.4S93,87.6,99.8,85.8c3.1,0.8,8.4-1.2,10-3.9c1.4-0.2,23,11.2,31.4,6.1s17.3-10.6,19.4-10.4
	C160.7,74.8,159.3,73,158.5,72.4z"/>
</svg>
