<?xml version="1.0" encoding="utf-8"?>
<!-- Generator: Adobe Illustrator 24.3.0, SVG Export Plug-In . SVG Version: 6.00 Build 0)  -->
<svg version="1.1" id="dog-vs-cat" xmlns="http://www.w3.org/2000/svg" xmlns:xlink="http://www.w3.org/1999/xlink" x="0px" y="0px"
	 width="300px" height="287.6px" viewBox="0 0 300 287.6" style="enable-background:new 0 0 300 287.6;" xml:space="preserve">
<style type="text/css">
	.st0{fill:#ECB86A;}
	.st0 { cursor: pointer; }
	.st0:hover { fill: #ff8585 !important;}
</style>
<path class="st0" d="M78.7,199.6c-20.3-28.2-26.6-29.6-29.8-32.5c-18.1-5.5-31.8-16.3-37.1-24.4s0.3-14,2.3-17
	c-7.2-16,5.2-22.1,10.1-22.6c-0.3-5.2,6.9-10.6,11.7-12.3c4.8-1.7,13,6.4,13.7,4.9c6.1-6.1,9.4-4.5,13.1-2.8
	c3.2,1.8,4.1,4.9,9.8,11.9C80,113,87,111.6,93.1,114c14.7,33.2,38.7,40.5,38.7,40.5C126.6,166.2,81.6,199.2,78.7,199.6z M31.4,95.1
	c0,0-2.9,1.2-2.1,3.1c0.8,1.8,4.6,6.6,5.5,5.4C35.7,102.3,33.3,97.1,31.4,95.1z M16.1,109.4c0,0-1.8,1.8-1.1,3.2s4.3,4.1,6,4.5
	C22.7,117.4,22.4,114.9,16.1,109.4z M12.1,131.3c0,0-0.8,7.6,0.9,5.2C15.3,133.5,12.1,131.3,12.1,131.3z M57.5,94.1
	c0-0.8-3.5-1.4-3.2,0.3c0.3,1.7,1.8,9.1,3.2,8S57.8,98.8,57.5,94.1z M124.4,155.8c-1.3-0.6-22.8-13-30.2-26.2
	c3.6,9.1,5.4,10.4,6.1,11.8c0,0-8.9,10-14.5,13s-14.5,7-18.8,8c0,0-4.4,2.5,2.6,2.4s15.2-3.2,21.5-5c6.2-1.8,17.4-8.8,19.1-9.2
	c1.5,1.1,11.4,6.4,12.6,7.1C123.4,156.8,124.4,155.8,124.4,155.8z M218.6,202.5c14.9,10.6,40.5,17.6,58.5,32.9s22.9,51.2,22.9,51.2
	s-119.5,1-125,1c-4.1-1.4-35.8-31.3-35.8-31.3C172.3,224.2,205,207.6,218.6,202.5z M293.2,280.4c0,0-6.8-31.3-27.4-44.4
	s-42.6-23.7-49.1-25.8c0,0-3.3-0.8-1.2,2.7s-5.1,3.9-17.2,13.5s-10.6,12.7-14.7,16.2s-9.8,4.1-11.9,5.9c-2,1.8,10.2,1.2,18.8-2.3
	s20.1-15.6,29.1-16.4c0,0-0.8,3.5-5.3,7.2c2.9,1.6,14.5-8.8,17.4-11.9c1.6,2,10,3.9,12.1,5.7c-2.5,3.9-8,8.2-11.9,11.1
	c-3.9,2.9-18.6,8.4-28.6,16.6s-22.3,21.3-23.7,25c1.6,2.5,10.4,1.8,13.1,1.6c0,0,11.1-12.5,21.5-18.6s29.5-7.4,35-11.1
	c5.5-3.7,12.1-8.8,15.3-11.5c4.3,2.7,9.8,7.8,10.4,9.6s-3.9,6.1-7.4,8.6s-13.3,8.8-18.4,11.3c1.4,3.3,3.9,2.5,7.2,2.3
	c3.3-0.2,20.1-5.7,23.3-7.8c3.3-2,9.2,11.3,9.8,13.5C289.4,281.5,292,282.9,293.2,280.4z M0,287.2c1.4-1.8,1.6-2,1.6-2
	S47.1,235,87,205.9s58.7-47.7,66.3-54s34.2-39.5,49.9-47.5c1.2-3.5,12.7-11.7,21.5-13.5c5.7-1.4,4.5-1,3.1,0.6s-1.6,1.6-3.1,3.7
	c3.7-0.4,9.6-5.1,12.9-6.3s14.3-2,17.8-0.6c3.5,1.4,14.1,11.3,11.7,22.9c4.3,3.7,9,18.6,6.3,26s-7.6,8.6-8,11.1s8.4,16.8-20.1,28.4
	c-5.5,5.1-20.7,14.5-28,18c-7.4,3.5-8.6,1-15.1,5.3s-58.1,40.1-111.7,84.9C88.8,289,14.7,287.2,0,287.2z M263,110.2
	c0,0-7.8,1.6-9.6,4.1s-0.2,3.7,1.2,3.5s7.4-4.3,8.6-4.7C264.4,112.6,263,110.2,263,110.2z M256.4,149.9c0,0,2-0.3,3.5-0.9
	c1.4-0.6-1.8-4.9-6.1-2.7c-4.3,2.3-6.3,4.5-4.5,4.9C251.1,151.7,256.4,149.9,256.4,149.9z M203.3,54.4c-9.9-7.9-70.9-56.8-138,5.3
	c-2.4,3.4-1-7,2-9.2c-1-5.2-3.9-14.1-4.5-18.3S73,39.7,74.6,40c1.5,0.3-2.6-7.9-2.6-7.9l5.3,5.4c2-5-7-32.5-4.6-36.5
	s25.9,29,25.9,29s5.3-2.9,9-3.1c0.2-6.3,0.9-12.8,2.3-14c0,0,3.1,4.7,5.8,8.4c1.8,0.6,2.5-19.1,5.9-19.1c1.9,1.3,6,20.2,6,20.2
	c5-0.9,10.2-0.7,15.6-0.2c0,0,6.6-14.6,7.7-12.7C152,11.5,153,21,153,21s1.3-2.8,3.3-5.9c0.4,3.2,0.5,6.2,0.1,9.1
	c3.9,0.8,6.7,1.9,9.1,3.1c0.8-1.3,9.7-18.3,10.7-17.9c1.4,0.5-1.8,9.8-1.8,9.8S186.8-0.6,189.6,0s-5.7,29.8-6,31.7
	s10.9-11.2,10.9-11.2l-3.2,10.2c0,0,32.8-24.7,34.7-23.2s-22.2,33.7-21.6,37.4c0.7,3.7,8.9-5.4,9.8-3.8c1,1.8-5.6,12.8-5.6,12.8
	s2,2,2.8,5C211.2,62,206.8,57.5,203.3,54.4z"/>
	<defs>
 		<script>
    		let theIcon = document.querySelector("#dog-vs-cat");

    		function logMyId() {
    			console.log('clicked on an image!');
    			console.log(this.id);
    		}

    		theIcon.addEventListener("click", logMyId);
    	</script>
	</defs>
</svg>
