<?xml version="1.0" encoding="utf-8"?>
<!-- Generator: Adobe Illustrator 24.3.0, SVG Export Plug-In . SVG Version: 6.00 Build 0)  -->
<svg version="1.1" id="dogtor" xmlns="http://www.w3.org/2000/svg" xmlns:xlink="http://www.w3.org/1999/xlink" x="0px" y="0px"
	 width="269.2px" height="300px" viewBox="0 0 269.2 300" style="enable-background:new 0 0 269.2 300;" xml:space="preserve">
<style type="text/css">
	.st0{fill:#ECB86A;}
</style>
<path class="st0" d="M134.4,59.8c0,0,12.5-9.2,5.5-18.9s-8.2-15.9-17.1-27.5S84-8.5,59.6,10.7c-5.8,5.8-6.4,6.1-10.1,13.1
	c-5.8,11.9-17.7,23.8-14.7,25.9c0,0,8.5,15,12.8,13.4c4.3-1.5,3.7-12.2,6.7-16.5c-4.8-4.2-3.8-11,3.8-4.7c0.9-0.3,2-0.8,1.9-2
	c-1.5-1.7-1.5-8,3.5-3.4C74.2,26.1,99,26,111.8,32.8c0,0,7.9-12.8,5.2,2.6c2.8,4.5,5,8.3,6.8,11.6c5.4-7.4,8.4-5.9,7-0.2
	c-0.5,3.1-4.4,3.5-3.8,7.1C128.9,58.9,130.4,62.3,134.4,59.8z"/>
<path class="st0" d="M55.3,114c0,0,15.9,10,28.5,10.6c12.6,0.6,30.3-5.5,35.8-10.4c1.2,1.4-6.1,7.9-11.4,11.6s-6.1,6.9-3.3,12.2
	c2.8,5.3,0,4.7-3.5,6.1s-14.7,3.3-13.2,8.5c1.4,5.3-1.2,17.4-1.2,19.9c-2.2,5.3-0.2,11-12-5.5C66.7,153.6,53.5,119.9,55.3,114z"/>
<path class="st0" d="M123.3,49.7c4.1,6.7,7.1,41.3,7.9,43.3c0.8,2,7.3,7.5,9.4,8.7c-1,2-2.8,1.8-6.1,3.3c-3.3,1.4-4.5-0.4-5.6,1
	c-1.3,3.5-5,5.9-4.8,4.7c0.2-1.2-1.8-1-3.3-1.6c-3.9,3.5-6.7,3.7-7.3,2c-4.3,4.1-7.3,4.3-10.6,5.1c0,0,0,0-1.8,0.6
	c-1.8,0.6,2-3.1,2.6-5.9c-2.4,3.5-6.3,5.5-11.4,6.5c-3.3,0.2-1-0.6,1.8-5.3c-4.5,3.9-9.4,4.9-10.2,3.9c-0.8-1-1.8-1.6-4.3-0.2
	c-3.5-1.2-6.9-6.3-8.1-6.5c-0.8,2.4,1.2,5.9,2.2,7.1c-8.3-1-15.3-7.3-16.7-8.3c-2.2,1-3.5,0.8-5.5,0.6c-1-2-1-3.9-1.6-3.5
	s-4.1-0.2-6.1,0.8c0-1.2-0.8-4.1,0.2-6.7c-1.6,0-4.1,1.2-6.3,2c0.2-2.6-0.2-2,5.5-7.9s5.5-11.2,6.5-17.7c1-6.5,1.8-25.2,16.3-38.5
	s44.4-3.1,44.4-3.1C117.8,38.6,119.2,43,123.3,49.7z M80.1,52c0,0-5.9,2.2-5.7,6.5c0.2,4.3,3.7,9,9.6,9c5.9,0,13-2.2,12.4-6.9
	S94.6,49.7,80.1,52z M99.7,36.9c0,0-5.3-4.1-4.3,2.2c1,6.3,4.9,3.3,5.3,2C101.1,40,100.7,38.8,99.7,36.9z M74.4,37.5
	c0,0-2.8,0.8-3.7,3.3c-0.8,2.4,0.8,5.5,2.8,4.7s2.4-6.1,2.2-7.1C75.7,37.3,75.5,37.3,74.4,37.5z M64.6,74.9
	c1.7,5.9,15.1,0.3,18.2-1.6c3.1-1.9,6.3,0.4,7.9,2.3c4.6,2.7,8.3,3.1,16.5-0.3c2.2-5-1.6-6.8-3.5-4.4c-1.9,2.4-6.7,4.7-9.7,2.5
	c-3-2.1-7.1-8-13.9-3.3c-3.3,2.3-5.5,6.7-11.3,1.9C68.8,72,62.5,67.7,64.6,74.9z"/>
<path class="st0" d="M51,116.7c0,0-3.3-14.9-6.7-5.9c-3.5,9,0.6,45.2,2.8,47.2c2.2,2,3.1,33.8,2.6,35.8c-0.4,2,5.5,4.3,3.3,6.3
	c-2.2,2-9,5.3-7.9-4.3c1-9.6,0.4-33.4-1.6-34.8c-2-1.4-8.5-4.5-9.2,12s-0.4,20.8,2,21.4c2.4,0.6,4.3,2,2.2,4.5s-9.2,5.7-8.7-8.7
	c0.4-14.4,1.2-31.9,5.5-35.2c4.3-3.3,5.7-7.5,4.9-13.2s-1.2-16.3,0.2-18.5c1.4-2.2-0.4-5.7-5.3,5.1s-6.7,10.8-7.1,20.3
	s-10.2,44.8-9.8,69.2c0.4,24.4-2.4,31.7-5.9,39.1c-3.5,7.3-3.3,11.6-5.3,12.2s-4.7-0.2-6.3,8.7c-1.6,9-1.6,7.5,9.2,14.9
	s15.9,9,18.1,5.7s23.6-2.2,27.7-2c4.1,0.2,10.2-9,7.5-12.2s-13-12.4-8.7-17.7s-1.6-8.3-2-13.4s-1-5.7,1.8-7.7
	c2.8-2,4.7-4.1-1.8-17.3s-0.2-18.3,1.2-12.2c1.4,6.1,4.9,17.5,6.1,21.2c1.2,3.7,2.8,7.9-0.8,11c-3.7,3.1-3.5,4.1-1.4,8.3
	c2,4.3,1,6.9,6.7,4.3c5.7-2.6,24.8-9,18.1-2.6c-6.9,3.1-16.5,5.5-20.3,8.7s-4.1,4.3-1.2,8.1c2.8,3.9,1.6,9.2,11,6.3
	s15.1-5.1,17.7-4.9c0,0,1.2-4.9-2.8-42.9c-4.1-38.1-5.3-40.3-9.2-50.9c-3.9-10.6-13.4-22.2-16.7-31.7
	C57.6,141.1,51.9,126.5,51,116.7z"/>
<path class="st0" d="M90.9,283.5c0,0,0-5.3-7.5-2.8s-16.9,4.1-16.1,8.3s4.3,7.9,11.6,6.7c7.3-1.2,10.8,0,11.6-4.3
	C91.3,287.2,90.9,283.5,90.9,283.5z"/>
<path class="st0" d="M126.3,114c0,0-7.5,10.4-14,14.2c-6.5,3.9-5.3,3.7-2.8,9.2s3.1,6.3-5.5,9.8c-8.5,3.5-9,0.2-8.5,10.8
	c0.4,10.6-4,39.3-4.7,56.4c-0.7,17.5,0,25.6,3.5,61.2c7.1,1.6,14.8,6.3,17.9,5.9c2.8-0.6-0.2-4.1,0.2-5.5c0.4-1.4,2.2-2.2,5.1-6.5
	c2.8-4.3,8.5-12.4,11.5-15.1c1.1-0.8,0.1-3.7-4.8-7.1c-4.9-3.5-2.6-4.5,0.2-12c2.8-7.5,6.3-19.3,8.1-20.3c1.8-1,3.1,1,0.2,8.7
	c-2.8,7.7-7.3,18.9-5.1,21.2c2.2,2.2,9.6,4.3,2.8,13.4c-6.7,9.2-12.6,17.3-9.8,19.7c2.8,2.4,21.4,14.9,30.3,16.1
	c2.4-0.2,23.4-0.6,28.7-0.8c1.6-4.7-5.3-57.6-12.6-79.4s-1.8-16.9-11.2-49.4c-1.2-3.7,7.3-14.7-1.8-25.6
	c-9.2-11-15.9-23.8-19.3-22.2s1.4,5.3,1,12.6c-0.4,7.3,0,25.8-0.4,35c0.2,3.3-0.4,6.5,1.2,6.9c1.6,0.4,7.5,18.3-2.2,26.2
	c-2.6,2.6-13.8,0.2-8.5-25c0,0,3.3-2.4,4.7-2.6c0.6-2,0.4-47.8,1.2-53.9C131.6,115.9,128.6,107.9,126.3,114z"/>
<path class="st0" d="M115,286.5c0,0-14.7-7.8-21.1-7c0.5,0.1-2.1,12.6,0.3,13.8c2.4,1.2,5.2,2.1,7.4,1.7c2.2-0.4,2.4,2.2,5.4,1.9
	C110.1,296.7,115,286.5,115,286.5z"/>
<path class="st0" d="M94,279.5c-0.1,2.7-2.3,13.1,0.3,13.8"/>
<path class="st0" d="M183.3,270.5c0.2,0.6,2,18.9,1.8,21.6s15.9,0.8,35.2,1.2s31.9,2.8,39.1,0.4c7.1-2.4,10.2-8.1,9.8-11
	c-0.4-2.8-2.2-2.2-16.3-3.1c-14-0.8-38.5-5.1-51.1-6.3c-12.6-1.2-17.3-6.1-18.9-8.3C182.1,266.5,183.3,270.5,183.3,270.5z"/>
</svg>
